<?xml version="1.0" standalone="no"?>
<!DOCTYPE svg PUBLIC "-//W3C//DTD SVG 20010904//EN"
 "http://www.w3.org/TR/2001/REC-SVG-20010904/DTD/svg10.dtd">
<svg version="1.0" xmlns="http://www.w3.org/2000/svg"
 width="256.000000pt" height="256.000000pt" viewBox="0 0 256.000000 256.000000"
 preserveAspectRatio="xMidYMid meet">

<g transform="translate(0.000000,256.000000) scale(0.100000,-0.100000)"
fill="#000000" stroke="none">
<path d="M205 2538 c-78 -28 -150 -99 -183 -180 -16 -40 -17 -125 -17 -1083
l0 -1040 24 -52 c29 -65 101 -134 166 -159 48 -18 89 -19 1085 -19 996 0 1037
1 1085 19 65 25 137 94 166 159 l24 52 3 1004 c1 646 -1 1023 -8 1059 -20 111
-74 182 -174 228 l-51 24 -1045 -1 c-715 0 -1054 -4 -1075 -11z m845 -461 c14
-7 33 -28 42 -47 17 -32 18 -86 18 -678 0 -716 1 -700 -64 -727 -50 -21 -461
-22 -511 -1 -68 29 -66 2 -63 742 l3 666 33 29 32 29 243 0 c173 0 249 -4 267
-13z m1006 -21 l34 -34 0 -382 0 -382 -29 -29 -29 -29 -257 0 -257 0 -28 28
c-19 19 -30 44 -35 73 -3 24 -5 195 -3 379 3 304 5 339 21 364 10 15 28 31 40
36 12 5 132 9 266 9 l243 1 34 -34z"/>
</g>
</svg>
